<?xml version="1.0" encoding="UTF-8" standalone="no"?>
<!-- Created with Inkscape (http://www.inkscape.org/) -->

<svg
   width="256"
   height="256"
   viewBox="0 0 67.733332 67.733333"
   version="1.1"
   id="svg1655"
   sodipodi:docname="scadalts_256.svg"
   inkscape:version="1.2.2 (732a01da63, 2022-12-09)"
   xmlns:inkscape="http://www.inkscape.org/namespaces/inkscape"
   xmlns:sodipodi="http://sodipodi.sourceforge.net/DTD/sodipodi-0.dtd"
   xmlns="http://www.w3.org/2000/svg"
   xmlns:svg="http://www.w3.org/2000/svg">
  <sodipodi:namedview
     id="namedview1657"
     pagecolor="#ffffff"
     bordercolor="#000000"
     borderopacity="0.25"
     inkscape:showpageshadow="2"
     inkscape:pageopacity="0.0"
     inkscape:pagecheckerboard="0"
     inkscape:deskcolor="#d1d1d1"
     inkscape:document-units="mm"
     showgrid="false"
     inkscape:zoom="1.6819304"
     inkscape:cx="240.79474"
     inkscape:cy="242.87568"
     inkscape:window-width="1920"
     inkscape:window-height="1138"
     inkscape:window-x="-8"
     inkscape:window-y="-8"
     inkscape:window-maximized="1"
     inkscape:current-layer="layer1" />
  <defs
     id="defs1652">
    <rect
       x="83.822037"
       y="78.500008"
       width="61.868649"
       height="54.550854"
       id="rect331" />
  </defs>
  <g
     inkscape:label="Warstwa 1"
     inkscape:groupmode="layer"
     id="layer1">
    <rect
       rx="0"
       ry="10.369511"
       y="0.71772015"
       x="0.7177161"
       height="66.364876"
       width="66.364876"
       id="rect864-4"
       style="fill:#cccccc;fill-opacity:1;fill-rule:nonzero;stroke:none;stroke-width:2.36631;stroke-linecap:round;stroke-linejoin:round;stroke-miterlimit:4;stroke-dasharray:none;stroke-dashoffset:0;stroke-opacity:1;paint-order:normal" />
    <path
       id="path6921-3-4"
       style="fill:#333333;fill-opacity:1;fill-rule:nonzero;stroke:none;stroke-width:0.547536"
       d="m 47.061719,40.935786 c 0,1.883008 -0.373563,3.562017 -1.124978,5.038256 -0.748696,1.475693 -1.769204,2.706947 -3.063714,3.724871 -1.295046,0.99767 -2.846051,1.791454 -4.650807,2.341254 -1.804761,0.559542 -3.757182,0.844716 -5.864373,0.844716 -1.294504,0 -2.549087,-0.112405 -3.754445,-0.33597 -1.20591,-0.23413 -2.29205,-0.519168 -3.254582,-0.865016 -0.969651,-0.345915 -1.784528,-0.69233 -2.459397,-1.0486 -0.671038,-0.36642 -1.107463,-0.640855 -1.313104,-0.854661 -0.20291,-0.193236 -0.347272,-0.366398 -0.441324,-0.498075 -0.08916,-0.152817 -0.16295,-0.326024 -0.225904,-0.519782 -0.06135,-0.203679 -0.107204,-0.447778 -0.129608,-0.712063 -0.02786,-0.264579 -0.04088,-0.60055 -0.04088,-1.008069 0,-0.50861 0.01317,-0.946738 0.04088,-1.313476 0.0222,-0.365783 0.07875,-0.681885 0.167344,-0.946124 0.08916,-0.244689 0.205652,-0.427275 0.342877,-0.549619 0.139456,-0.101038 0.311709,-0.162581 0.517347,-0.162581 0.277262,0 0.706047,0.173253 1.269895,0.549618 0.57373,0.36642 1.30216,0.773486 2.193058,1.22131 0.890891,0.437809 1.952421,0.854661 3.185673,1.221376 1.226689,0.366397 2.607604,0.549596 4.130707,0.549596 1.144657,0 2.198528,-0.132383 3.162704,-0.417305 0.965279,-0.285676 1.792733,-0.681976 2.496038,-1.201078 0.697836,-0.519805 1.240911,-1.160523 1.634675,-1.913684 0.395975,-0.742763 0.593928,-1.597924 0.593928,-2.574771 0,-1.038247 -0.274535,-1.954262 -0.822532,-2.728247 -0.545786,-0.773484 -1.261689,-1.465316 -2.14985,-2.056216 -0.88871,-0.599914 -1.907029,-1.1397 -3.04895,-1.607846 -1.143015,-0.468261 -2.307902,-0.976825 -3.485919,-1.516815 -1.180204,-0.529105 -2.34017,-1.119324 -3.485373,-1.770602 -1.142465,-0.651185 -2.167897,-1.404393 -3.069185,-2.290276 -0.899095,-0.885816 -1.614434,-1.93394 -2.14985,-3.165127 -0.535936,-1.24163 -0.797371,-2.687192 -0.797371,-4.33607 0,-1.628624 0.3298,-3.114747 0.98988,-4.447903 0.65518,-1.343592 1.571231,-2.483797 2.739403,-3.420053 1.169812,-0.946695 2.540881,-1.668638 4.114853,-2.198185 1.576702,-0.508622 3.277549,-0.783921 5.108017,-0.783921 1.065896,0 2.117039,0.112399 3.157237,0.305545 1.046211,0.20368 1.987963,0.44838 2.841674,0.732935 0.852061,0.275113 1.586002,0.5701 2.208367,0.895704 0.621822,0.315482 1.022693,0.570103 1.203172,0.753181 0.175046,0.203067 0.309542,0.366406 0.398139,0.509241 0.087,0.132289 0.16517,0.315482 0.223662,0.529117 0.06891,0.223571 0.112087,0.478808 0.137305,0.78392 0.02542,0.304924 0.03531,0.661082 0.03531,1.068413 0,0.488126 -0.01001,0.896264 -0.03531,1.231743 -0.02539,0.31548 -0.08421,0.590595 -0.172803,0.81404 -0.0886,0.213627 -0.188118,0.376341 -0.302416,0.478806 -0.115916,0.101157 -0.258117,0.15225 -0.438597,0.15225 -0.228628,0 -0.607065,-0.162627 -1.122232,-0.498689 -0.522863,-0.325417 -1.173097,-0.681948 -1.942035,-1.048105 -0.781511,-0.366405 -1.68827,-0.722504 -2.729012,-1.048167 -1.040744,-0.32604 -2.203448,-0.498684 -3.502873,-0.498684 -0.988245,0 -1.89117,0.132294 -2.703854,0.396835 -0.814883,0.264555 -1.500689,0.641395 -2.055787,1.109526 -0.561646,0.468253 -0.990432,1.027859 -1.297789,1.679627 -0.301857,0.651209 -0.456626,1.343029 -0.456626,2.075891 0,1.099668 0.278935,2.035984 0.84003,2.829724 0.552911,0.794283 1.28685,1.475669 2.185951,2.066092 0.903469,0.580024 1.929445,1.129778 3.068635,1.618769 1.145746,0.498074 2.313372,0.997102 3.506155,1.505802 1.19333,0.519169 2.358764,1.089202 3.50287,1.730601 1.142473,0.620418 2.168449,1.373716 3.071924,2.238723 0.895817,0.875416 1.62428,1.903286 2.183214,3.093917 0.563813,1.201622 0.840575,2.615893 0.840575,4.245107"
       inkscape:connector-curvature="0" />
    <ellipse
       style="fill:#46c557;fill-opacity:1;fill-rule:nonzero;stroke:none;stroke-width:1.92222;stroke-linecap:round;stroke-linejoin:round;stroke-miterlimit:4;stroke-dasharray:none;stroke-dashoffset:0;stroke-opacity:1;paint-order:normal"
       id="circle870-1"
       cx="52.562508"
       cy="49.057869"
       rx="8.4135914"
       ry="8.4332542" />
    <text
       xml:space="preserve"
       style="font-style:normal;font-variant:normal;font-weight:bold;font-stretch:normal;font-size:8.40119px;font-family:sans-serif;-inkscape-font-specification:'sans-serif Bold';fill:#ffffff;fill-opacity:1;stroke-width:0.600083"
       x="45.516788"
       y="51.903576"
       id="text337-3"
       transform="scale(0.99883348,1.0011679)"><tspan
         sodipodi:role="line"
         id="tspan335-1"
         style="font-style:normal;font-variant:normal;font-weight:bold;font-stretch:normal;font-size:8.40119px;font-family:sans-serif;-inkscape-font-specification:'sans-serif Bold';fill:#ffffff;fill-opacity:1;stroke-width:0.600083"
         x="45.516788"
         y="51.903576"><tspan
   id="tspan491-6"
   style="font-style:normal;font-variant:normal;font-weight:bold;font-stretch:normal;font-size:8.40119px;font-family:sans-serif;-inkscape-font-specification:'sans-serif Bold';fill:#ffffff;fill-opacity:1;stroke-width:0.600083">L</tspan>TS</tspan></text>
  </g>
</svg>
